<svg id="visual" viewBox="0 0 900 600" width="900" height="600" xmlns="http://www.w3.org/2000/svg" xmlns:xlink="http://www.w3.org/1999/xlink" version="1.1"><g transform="translate(991.0860937328576 34.877374250584154)"><path d="M194.9 -260.7C253.5 -183.1 302.5 -122.5 317.2 -53.8C332 15 312.3 92 283.2 183.1C254 274.3 215.2 379.6 149.3 398.4C83.5 417.2 -9.6 349.6 -125.6 318.8C-241.6 287.9 -380.6 294 -448.7 232C-516.8 170 -513.9 39.9 -485.4 -79.3C-456.9 -198.5 -402.6 -306.8 -317.4 -379.8C-232.3 -452.8 -116.1 -490.4 -24 -461.8C68.1 -433.2 136.3 -338.4 194.9 -260.7" fill="#0ea5e9"></path></g></svg>